<svg data-v-fde0c5aa="" xmlns="http://www.w3.org/2000/svg" viewBox="0 0 300 300" class="font"><!----><defs data-v-fde0c5aa=""><!----></defs><rect data-v-fde0c5aa="" fill="#28003A" x="0" y="0" width="300px" height="300px" class="logo-background-square"></rect><defs data-v-fde0c5aa=""><!----></defs><g data-v-fde0c5aa="" id="0ddeedcb-6074-4000-88f3-57a606643187" fill="#E46948" transform="matrix(4.326450473975211,0,0,4.326450473975211,40.000000000000014,125.77187698471165)"><path d="M3.99 0.70L5.47 0.70L5.47 10.50L4.49 10.50L4.49 3.53L3.40 9.79L2.07 9.79L0.98 3.53L0.98 10.50L0 10.50L0 0.70L1.50 0.70L2.74 7.95L3.99 0.70ZM7.32 0.70L9.38 0.70L9.38 0.70Q9.79 0.77 10.05 1.08L10.05 1.08L10.05 1.08Q10.32 1.39 10.32 1.81L10.32 1.81L10.32 9.39L10.32 9.39Q10.32 9.81 10.05 10.12L10.05 10.12L10.05 10.12Q9.79 10.43 9.38 10.50L9.38 10.50L7.32 10.50L7.32 10.50Q6.92 10.43 6.65 10.12L6.65 10.12L6.65 10.12Q6.38 9.81 6.38 9.39L6.38 9.39L6.38 1.81L6.38 1.81Q6.38 1.39 6.65 1.08L6.65 1.08L6.65 1.08Q6.92 0.77 7.32 0.70L7.32 0.70ZM9.34 9.39L9.34 1.81L9.34 1.81Q9.34 1.67 9.21 1.67L9.21 1.67L7.50 1.67L7.50 1.67Q7.36 1.67 7.36 1.81L7.36 1.81L7.36 9.39L7.36 9.39Q7.36 9.53 7.50 9.53L7.50 9.53L9.21 9.53L9.21 9.53Q9.34 9.53 9.34 9.39L9.34 9.39ZM14.71 0.70L15.71 0.70L14.14 10.50L12.80 10.50L11.23 0.70L12.22 0.70L13.47 8.54L14.71 0.70ZM17.53 0.70L17.53 10.50L16.55 10.50L16.55 0.70L17.53 0.70ZM21.97 1.68L19.42 1.68L19.42 4.62L21.46 4.62L21.46 5.60L19.42 5.60L19.42 9.52L21.97 9.52L21.97 10.50L18.44 10.50L18.44 4.62L19.42 4.62L18.44 1.68L18.44 0.70L21.97 0.70L21.97 1.68ZM26.36 0.70L27.36 0.70L25.79 10.50L24.44 10.50L22.88 0.70L23.87 0.70L25.12 8.54L26.36 0.70ZM31.54 10.50L30.30 2.67L29.58 7.20L30.30 7.20L30.30 8.18L29.43 8.18L29.05 10.50L28.06 10.50L28.43 8.18L28.06 8.18L28.06 7.20L28.59 7.20L29.62 0.70L30.97 0.70L32.54 10.50L31.54 10.50ZM34.06 9.51L36.61 9.51L36.61 10.50L33.08 10.50L33.08 9.51L33.08 0.70L34.06 0.70L34.06 9.51ZM38.51 9.51L41.06 9.51L41.06 10.50L37.53 10.50L37.53 9.51L37.53 0.70L38.51 0.70L38.51 9.51ZM45.51 1.68L42.97 1.68L42.97 4.62L45.01 4.62L45.01 5.60L42.97 5.60L42.97 9.52L45.51 9.52L45.51 10.50L41.99 10.50L41.99 4.62L42.97 4.62L41.99 1.68L41.99 0.70L45.51 0.70L45.51 1.68ZM49.85 0.70L50.85 0.70L49.13 7.13L49.13 10.50L48.15 10.50L48.15 7.13L46.42 0.70L47.42 0.70L48.64 5.17L49.85 0.70Z"></path></g><!----><!----></svg>